General
Complete name : Sherlock Holmes 2009 DvdScr MAX (ENG Sub Edit)
Format : AVI
Format/Info : Audio Video Interleave
Format profile : OpenDML
File size :953 MB
Duration : 2h 8mn
Overall bit rate : 2 228 Kbps
Writing library : VirtualDub build 30091/release

Video
ID : 0
Format : MPEG-4 Visual
Format profile : Advanced Simple@L5
Format settings, BVOP : Yes
Format settings, QPel : No
Format settings, GMC : No warppoints
Format settings, Matrix : Default (MPEG)
Muxing mode : Packed bitstream
Codec ID : XVID
Codec ID/Hint : XviD
Duration : 2h 8mn
Bit rate : 1 767 Kbps
Width : 704 pixels
Height : 384 pixels
Display aspect ratio : 16:9
Frame rate : 23.976 fps
Resolution : 8 bits
Colorimetry : 4:2:0
Scan type : Progressive
Bits/(Pixel*Frame) : 0.273
Stream size : 1.59 GiB (79%)
Writing library : XviD 1.2.1 (UTC 2008-12-04)

Audio
ID : 1
Format : AC-3
Format/Info : Audio Coding 3
Codec ID : 2000
Duration : 2h 8mn
Bit rate mode : Constant
Bit rate : 448 Kbps
Channel(s) : 6 channels
Channel positions : Front: L C R, Surround: L R, LFE
Sampling rate : 48.0 KHz
Stream size : 412 MiB (20%)
Alignment : Aligned on interleaves
Interleave, duration : 42 ms (1.00 video frame)
Interleave, preload duration : 512 ms






Enjoy!

25ic0hd.jpg
Genre : Animation | Family | Fantasy | Musical | Romance

Plot : After finally catching serial killer and occult "sorcerer" Lord Blackwood, legendary sleuth Sherlock Holmes and his assistant Dr. Watson can close yet another successful case. But when Blackwood mysteriously returns from the grave and resumes his killing spree, Holmes must take up the hunt once again. Contending with his partner's new fiancée and the dimwitted head of Scotland Yard, the dauntless detective must unravel the clues that will lead him into a twisted web of murder, deceit, and black magic - and the deadly embrace of temptress Irene Adler.
9k1gty.png



Robert Downey Jr.... Sherlock Holmes

Jude Law ... Dr. John Watson

Rachel McAdams ... Irene Adler

Mark Strong ... Lord Blackwood

Eddie Marsan ... Inspector Lestrade

Robert Maillet ... Dredger

Geraldine James ... Mrs. Hudson

Kelly Reilly ... Mary Morstan

William Houston ... Constable Clark

Hans Matheson ... Lord Coward

James Fox ... Sir Thomas

William Hope ... Ambassador Standish

Clive Russell ... Captain Tanner

Oran Gurel ... Reordan

David Garrick ... McMurdo



NOTES:

Torrent not really mine, thanks to MAX and IMAGINE bringing us another very awesome release!!!
i edited it with ENG Hardcored SUBS
hope you understand the movie very well! 

